<svg xmlns="http://www.w3.org/2000/svg" xml:space="preserve" width="16" height="16" data-version="2">
    <path d="M9.87 12.31H7.19q-.97 0-1.59-.34-.62-.34-.92-.95-.31-.6-.31-1.39v-3.1q0-1.2.7-1.79l1.43-1.2q.67-.57 2.11-.57h2.68q.51 0 .51.51v1.33q0 .27-.16.4L10.21 6.4q-.11.11-.34.11H8.52v1.86q0 .23.14.33.15.09.42.09h2.21q.51 0 .51.51v1.3q0 .28-.16.41l-1.43 1.19q-.11.11-.34.11M11.29 11q.4 0 .4-.4V9.3q0-.4-.4-.4H9.08q-.67 0-.67-.53V5.75q0-.55.67-.55h2.21q.4 0 .4-.39V3.48q0-.4-.4-.4H8.61q-1.39 0-2.05.55-.66.55-.66 1.7v3.43q0 1.14.66 1.69t2.05.55Zm-.6-.99H8.85q-.72 0-1.09-.14-.38-.15-.53-.46-.14-.31-.14-.82V5.51q0-.53.15-.84.15-.31.53-.46.38-.14 1.08-.14h1.84v.11H8.85q-.65 0-1.01.13-.35.12-.5.41-.14.3-.14.79v3.08q0 .47.14.77.13.29.49.41.36.13 1.02.13h1.84Z" paint-order="stroke"/>
    <rect width="7.43" height="9.34" x="-3.715" y="-4.67" fill="none" rx="0" ry="0" transform="translate(8.585 8.14)"/>
</svg>
